Coordinates
version=1
nRows=21
nColumns=22
inDegrees=yes

Units are S.I. units (second, meters, Newtons, ...)
If the header above contains a line with 'inDegrees', this indicates whether rotational values are in degrees (yes) or radians (no).

endheader
time	pelvis_tilt	pelvis_list	pelvis_rotation	pelvis_tx	pelvis_ty	pelvis_tz	hip_flexion_r	hip_adduction_r	hip_rotation_r	knee_angle_r	ankle_angle_r	subtalar_angle_r	hip_flexion_l	hip_adduction_l	hip_rotation_l	knee_angle_l	ankle_angle_l	subtalar_angle_l	lumbar_extension	lumbar_bending	lumbar_rotation
      0.01000000	    -10.41851398	      2.72734506	    -36.04702580	     -0.98625556	      0.88205936	     -0.38408564	      9.69355783	      2.45738642	      3.02787844	     -5.65570674	     10.72575971	     -2.19869583	      8.19677980	     -5.36296027	     -6.14412927	    -10.15972915	     16.20303395	      2.45872685	      5.58382641	      2.60641641	     13.87473464
      0.02000000	    -10.40481834	      2.76074876	    -36.07396003	     -0.98625531	      0.88204894	     -0.38411225	      9.70638126	      2.41935126	      3.05301535	     -5.65761954	     10.73767143	     -2.21291769	      8.15962397	     -5.32118486	     -6.18649460	    -10.08155073	     16.17164509	      2.47254148	      5.59873975	      2.56236054	     13.88699446
      0.03000000	    -10.41505614	      2.76685467	    -36.08545698	     -0.98624026	      0.88202710	     -0.38415531	      9.71744807	      2.41811297	      3.06357055	     -5.65237976	     10.73695978	     -2.21392893	      8.13604331	     -5.31783556	     -6.22223723	    -10.01767789	     16.17210553	      2.47368624	      5.61961915	      2.55777147	     13.85752296
      0.04000000	    -10.41484148	      2.78885361	    -36.12405357	     -0.98623240	      0.88202044	     -0.38416444	      9.72714647	      2.40019853	      3.11210042	     -5.64019308	     10.73004265	     -2.21365450	      8.08244986	     -5.29465184	     -6.25841359	     -9.90501539	     16.12013826	      2.48221054	      5.64211040	      2.53025375	     13.88458035
      0.05000000	    -10.42320035	      2.79631965	    -36.13345038	     -0.98619693	      0.88200413	     -0.38421952	      9.73477281	      2.39458197	      3.11879620	     -5.63125296	     10.72839828	     -2.21288680	      8.05872442	     -5.28769112	     -6.29761742	     -9.84317723	     16.12263974	      2.48372412	      5.66195259	      2.52039293	     13.84905093
      0.06000000	    -10.43267977	      2.80838658	    -36.14716813	     -0.98615412	      0.88198582	     -0.38426464	      9.74347750	      2.38584502	      3.12971587	     -5.61734764	     10.72399786	     -2.21099179	      8.03033328	     -5.27744973	     -6.33209326	     -9.76666881	     16.11088956	      2.48789108	      5.68667096	      2.50551487	     13.82593034
      0.07000000	    -10.42683935	      2.83159137	    -36.17280910	     -0.98612371	      0.88198928	     -0.38430181	      9.74446961	      2.36009408	      3.16877349	     -5.59810456	     10.71392638	     -2.20329793	      7.98569322	     -5.24673190	     -6.35389609	     -9.67351522	     16.05169893	      2.50501382	      5.70116987	      2.46770086	     13.83751116
      0.08000000	    -10.43517946	      2.83615800	    -36.17623622	     -0.98608216	      0.88197355	     -0.38436817	      9.75093825	      2.35590484	      3.17207733	     -5.59106699	     10.71185308	     -2.20138305	      7.97100850	     -5.24252986	     -6.38440115	     -9.62886972	     16.05513169	      2.50838112	      5.71391697	      2.45586380	     13.80064318
      0.09000000	    -10.44535419	      2.84468064	    -36.18081737	     -0.98604105	      0.88195610	     -0.38443643	      9.75968566	      2.34933941	      3.17601512	     -5.57957006	     10.70720123	     -2.19888126	      7.95813182	     -5.23536414	     -6.40891176	     -9.57953162	     16.04831444	      2.51445824	      5.72927514	      2.44141353	     13.77251162
      0.10000000	    -10.45606745	      2.85545160	    -36.18561482	     -0.98600162	      0.88193545	     -0.38451361	      9.77130844	      2.34084033	      3.18307091	     -5.56890755	     10.70028438	     -2.19579009	      7.94796037	     -5.22577886	     -6.42959357	     -9.53000674	     16.03492206	      2.52320897	      5.74415058	      2.42570296	     13.74743487
      0.11000000	    -10.46771924	      2.86686304	    -36.19029198	     -0.98596674	      0.88191174	     -0.38459928	      9.78625720	      2.33248825	      3.19159413	     -5.56054565	     10.69316275	     -2.19246563	      7.94135400	     -5.21575784	     -6.44782424	     -9.48378905	     16.01919708	      2.53389323	      5.75719981	      2.40970799	     13.72638044
      0.12000000	    -10.48114207	      2.89139611	    -36.20438623	     -0.98594799	      0.88187975	     -0.38469892	      9.81488801	      2.31360921	      3.21150404	     -5.55514861	     10.68500642	     -2.18431784	      7.94172278	     -5.19502473	     -6.45831107	     -9.43199551	     15.97776795	      2.56431408	      5.77615841	      2.38565248	     13.72599561
      0.13000000	    -10.49397897	      2.89653726	    -36.20648494	     -0.98591815	      0.88185399	     -0.38480400	      9.83198680	      2.31087430	      3.21810074	     -5.55596646	     10.68249514	     -2.18227200	      7.94120181	     -5.19090702	     -6.47999436	     -9.39961276	     15.97749775	      2.57266010	      5.77981234	      2.37611231	     13.70115125
      0.14000000	    -10.51049956	      2.90693497	    -36.21191782	     -0.98590049	      0.88182253	     -0.38491336	      9.85768665	      2.30632863	      3.22797736	     -5.55814515	     10.67710701	     -2.18015248	      7.94472321	     -5.18439423	     -6.49977267	     -9.36087619	     15.96706766	      2.58489687	      5.78815825	      2.36397943	     13.68276718
      0.15000000	    -10.52920831	      2.92228091	    -36.22023376	     -0.98590404	      0.88178678	     -0.38503017	      9.89339701	      2.29964580	      3.24408937	     -5.56652370	     10.67015048	     -2.17804254	      7.95575516	     -5.17543947	     -6.51631193	     -9.32415937	     15.94802038	      2.60210271	      5.79797924	      2.34836506	     13.66881266
      0.16000000	    -10.55234831	      2.94601118	    -36.23292355	     -0.98592911	      0.88174161	     -0.38516148	      9.94496288	      2.28877844	      3.26303845	     -5.58284354	     10.66648890	     -2.17607109	      7.98286604	     -5.16225280	     -6.53007965	     -9.29955986	     15.92255547	      2.62941562	      5.81341616	      2.33013956	     13.66251578
      0.17000000	    -10.56151897	      2.94376446	    -36.23305266	     -0.98594372	      0.88173215	     -0.38527992	      9.95522208	      2.29098820	      3.26273721	     -5.57758918	     10.66720378	     -2.17595069	      7.99066917	     -5.16420502	     -6.53269215	     -9.29221650	     15.92288146	      2.63047894	      5.79753833	      2.31874727	     13.66081561
      0.18000000	    -10.60561721	      2.98466003	    -36.23497626	     -0.98601414	      0.88165126	     -0.38541452	     10.04879301	      2.27996547	      3.27461889	     -5.61594620	     10.66230281	     -2.17613966	      8.06554969	     -5.15253376	     -6.54629064	     -9.29417746	     15.89712968	      2.67370953	      5.84078424	      2.29052126	     13.64683845
      0.19000000	    -10.61425195	      2.98192421	    -36.23632285	     -0.98603593	      0.88165045	     -0.38552471	     10.05829459	      2.28253053	      3.27415624	     -5.61057061	     10.66273421	     -2.17603630	      8.07356139	     -5.15523130	     -6.54840839	     -9.28718403	     15.89866461	      2.67411093	      5.82306222	      2.27937520	     13.64294313
      0.20000000	    -10.62532799	      2.98450512	    -36.23197903	     -0.98607235	      0.88164668	     -0.38563625	     10.08247969	      2.28258594	      3.28189338	     -5.62452493	     10.64918482	     -2.17563445	      8.09449042	     -5.15605945	     -6.55464807	     -9.28985959	     15.90015135	      2.67872652	      5.80992251	      2.26315177	     13.61072775
      0.21000000	    -10.63414981	      2.98277147	    -36.23453560	     -0.98609183	      0.88165194	     -0.38573436	     10.09177438	      2.28484865	      3.27947430	     -5.61831564	     10.64908833	     -2.17551099	      8.10384702	     -5.15863480	     -6.55526167	     -9.28512091	     15.90031410	      2.67912387	      5.79347108	      2.25128713	     13.60957410
